# xmcd
#
# Track frame offsets:
#       150
#       18904
#       71479
#       99570
#       144316
#
# Disc length: 2654 seconds
#
# Revision: 1
# Processed by: cddbd v1.5.2PL0 Copyright (c) Steve Scherf et al.
# Submitted via: MusiCat 1.1
#
DISCID=390a5c05
DTITLE=John Mayall's Bluesbreakers - Live @ Fillmore West 9 Feb 1968
DYEAR=1900
DGENRE=
TTITLE0=Dust My Broom
TTITLE1=So Many Roads
TTITLE2=I Can't Sleep
TTITLE3=It's My Own fault
TTITLE4=Soul of a Short Fat Man
EXTD=\n\nWith Mick Taylor. The Bluesbreakers played between Albert King and Ji
EXTD=mi Hendrix !!\nSoundboard recording
EXTT0=
EXTT1=
EXTT2=
EXTT3=
EXTT4=
PLAYORDER=
